<svg width="1392" height="1205" viewBox="0 0 1392 1205" fill="none" xmlns="http://www.w3.org/2000/svg">
<path d="M1391.11 1203.3C954.415 995.072 437.597 995.072 0.894608 1203.3" stroke="#007BED" stroke-opacity="0.25" stroke-width="0.5" stroke-miterlimit="10"/>
<path d="M1391.11 936.1C954.415 820.419 437.597 820.419 0.894608 936.1" stroke="#007BED" stroke-opacity="0.25" stroke-width="0.5" stroke-miterlimit="10"/>
<path d="M1391.11 1069.69C954.415 907.733 437.597 907.733 0.894608 1069.69" stroke="#007BED" stroke-opacity="0.25" stroke-width="0.5" stroke-miterlimit="10"/>
<path d="M1391.11 668.899C954.415 645.766 437.597 645.766 0.894608 668.899" stroke="#007BED" stroke-opacity="0.25" stroke-width="0.5" stroke-miterlimit="10"/>
<path d="M1391.11 802.491C954.415 733.078 437.597 733.078 0.894608 802.491" stroke="#007BED" stroke-opacity="0.25" stroke-width="0.5" stroke-miterlimit="10"/>
<path d="M1391.11 268.093C954.415 383.771 437.597 383.771 0.894608 268.093" stroke="#007BED" stroke-opacity="0.25" stroke-width="0.5" stroke-miterlimit="10"/>
<path d="M1391.11 535.292C954.415 558.425 437.597 558.425 0.894608 535.292" stroke="#007BED" stroke-opacity="0.25" stroke-width="0.5" stroke-miterlimit="10"/>
<path d="M1391.11 401.7C954.415 471.112 437.597 471.112 0.894608 401.7" stroke="#007BED" stroke-opacity="0.25" stroke-width="0.5" stroke-miterlimit="10"/>
<path d="M1391.11 134.501C954.415 296.459 437.597 296.459 0.894608 134.501" stroke="#007BED" stroke-opacity="0.25" stroke-width="0.5" stroke-miterlimit="10"/>
<path d="M1391.11 0.894592C954.415 209.117 437.597 209.117 0.894608 0.894592" stroke="#007BED" stroke-opacity="0.25" stroke-width="0.5" stroke-miterlimit="10"/>
</svg>
