<svg xmlns="http://www.w3.org/2000/svg" version="1.1" xmlns:xlink="http://www.w3.org/1999/xlink" xmlns:svgjs="http://svgjs.dev/svgjs" viewBox="0 0 2400 800" opacity="1"><defs><linearGradient x1="50%" y1="0%" x2="50%" y2="100%" id="sssurf-grad"><stop stop-color="hsl(208, 77%, 50%)" stop-opacity="1" offset="0%"></stop><stop stop-color="hsl(208, 74%, 93%)" stop-opacity="1" offset="100%"></stop></linearGradient></defs><g fill="url(#sssurf-grad)" transform="matrix(1,0,0,1,0,-58.099639892578125)"><path d="M 0 342.20822249165235 Q 249.96505260010838 450 600 333.31809531501983 Q 956.1099874676147 450 1200 328.0370654175009 Q 1444.2878549932857 450 1800 306.19924324899307 Q 2150.953807039728 450 2400 325.31589776094427 L 2400 800 L 0 800 L 0 337.9104097694577 Z" transform="matrix(1,0,0,1,0,35)" opacity="0.05"></path><path d="M 0 342.20822249165235 Q 249.96505260010838 450 600 333.31809531501983 Q 956.1099874676147 450 1200 328.0370654175009 Q 1444.2878549932857 450 1800 306.19924324899307 Q 2150.953807039728 450 2400 325.31589776094427 L 2400 800 L 0 800 L 0 337.9104097694577 Z" transform="matrix(1,0,0,1,0,70)" opacity="0.29"></path><path d="M 0 342.20822249165235 Q 249.96505260010838 450 600 333.31809531501983 Q 956.1099874676147 450 1200 328.0370654175009 Q 1444.2878549932857 450 1800 306.19924324899307 Q 2150.953807039728 450 2400 325.31589776094427 L 2400 800 L 0 800 L 0 337.9104097694577 Z" transform="matrix(1,0,0,1,0,105)" opacity="0.53"></path><path d="M 0 342.20822249165235 Q 249.96505260010838 450 600 333.31809531501983 Q 956.1099874676147 450 1200 328.0370654175009 Q 1444.2878549932857 450 1800 306.19924324899307 Q 2150.953807039728 450 2400 325.31589776094427 L 2400 800 L 0 800 L 0 337.9104097694577 Z" transform="matrix(1,0,0,1,0,140)" opacity="0.76"></path><path d="M 0 342.20822249165235 Q 249.96505260010838 450 600 333.31809531501983 Q 956.1099874676147 450 1200 328.0370654175009 Q 1444.2878549932857 450 1800 306.19924324899307 Q 2150.953807039728 450 2400 325.31589776094427 L 2400 800 L 0 800 L 0 337.9104097694577 Z" transform="matrix(1,0,0,1,0,175)" opacity="1.00"></path></g></svg>